<?xml version="1.0" standalone="no"?>
<!DOCTYPE svg PUBLIC "-//W3C//DTD SVG 1.1//EN" "http://www.w3.org/Graphics/SVG/1.1/DTD/svg11.dtd">
<svg width="148mm" height="108mm" viewBox="-74 -54 148 108" xmlns="http://www.w3.org/2000/svg" version="1.1">
<title>OpenSCAD Model</title>
<path d="
M 65,31.5 L 65.0144,31.2059 L 65.0576,30.9147 L 65.1292,30.6291 L 65.2284,30.3519 L 65.3542,30.0858
 L 65.5056,29.8333 L 65.681,29.5968 L 65.8787,29.3787 L 66.0968,29.181 L 66.3333,29.0056 L 66.5858,28.8542
 L 66.8519,28.7284 L 67.1291,28.6292 L 67.4147,28.5576 L 67.7059,28.5144 L 68,28.5 L 74,28.5
 L 74,-28.5 L 68,-28.5 L 67.7059,-28.5144 L 67.4147,-28.5576 L 67.1291,-28.6292 L 66.8519,-28.7284
 L 66.5858,-28.8542 L 66.3333,-29.0056 L 66.0968,-29.181 L 65.8787,-29.3787 L 65.681,-29.5968 L 65.5056,-29.8333
 L 65.3542,-30.0858 L 65.2284,-30.3519 L 65.1292,-30.6291 L 65.0576,-30.9147 L 65.0144,-31.2059 L 65,-31.5
 L 65,-53.2 L -65,-53.2 L -65,-31.5 L -65.0144,-31.2059 L -65.0576,-30.9147 L -65.1292,-30.6291
 L -65.2284,-30.3519 L -65.3542,-30.0858 L -65.5056,-29.8333 L -65.681,-29.5968 L -65.8787,-29.3787 L -66.0968,-29.181
 L -66.3333,-29.0056 L -66.5858,-28.8542 L -66.8519,-28.7284 L -67.1291,-28.6292 L -67.4147,-28.5576 L -67.7059,-28.5144
 L -68,-28.5 L -74,-28.5 L -74,28.5 L -68,28.5 L -67.7059,28.5144 L -67.4147,28.5576
 L -67.1291,28.6292 L -66.8519,28.7284 L -66.5858,28.8542 L -66.3333,29.0056 L -66.0968,29.181 L -65.8787,29.3787
 L -65.681,29.5968 L -65.5056,29.8333 L -65.3542,30.0858 L -65.2284,30.3519 L -65.1292,30.6291 L -65.0576,30.9147
 L -65.0144,31.2059 L -65,31.5 L -65,53.2 L 65,53.2 z
M -62.7615,-46.7634 L -62.9314,-46.7886 L -63.098,-46.8304 L -63.2597,-46.8882 L -63.4149,-46.9616 L -63.5622,-47.0499
 L -63.7002,-47.1522 L -63.8274,-47.2676 L -63.9428,-47.3948 L -64.0451,-47.5328 L -64.1334,-47.6801 L -64.2068,-47.8353
 L -64.2646,-47.997 L -64.3064,-48.1636 L -64.3316,-48.3335 L -64.34,-48.505 L -64.3316,-48.6765 L -64.3064,-48.8464
 L -64.2646,-49.013 L -64.2068,-49.1747 L -64.1334,-49.3299 L -64.0451,-49.4772 L -63.9428,-49.6152 L -63.8274,-49.7424
 L -63.7002,-49.8578 L -63.5622,-49.9601 L -63.4149,-50.0484 L -63.2597,-50.1218 L -63.098,-50.1796 L -62.9314,-50.2214
 L -62.7615,-50.2466 L -62.59,-50.255 L -62.4185,-50.2466 L -62.2486,-50.2214 L -62.082,-50.1796 L -61.9203,-50.1218
 L -61.7651,-50.0484 L -61.6178,-49.9601 L -61.4798,-49.8578 L -61.3526,-49.7424 L -61.2372,-49.6152 L -61.1349,-49.4772
 L -61.0466,-49.3299 L -60.9732,-49.1747 L -60.9154,-49.013 L -60.8736,-48.8464 L -60.8484,-48.6765 L -60.84,-48.505
 L -60.8484,-48.3335 L -60.8736,-48.1636 L -60.9154,-47.997 L -60.9732,-47.8353 L -61.0466,-47.6801 L -61.1349,-47.5328
 L -61.2372,-47.3948 L -61.3526,-47.2676 L -61.4798,-47.1522 L -61.6178,-47.0499 L -61.7651,-46.9616 L -61.9203,-46.8882
 L -62.082,-46.8304 L -62.2486,-46.7886 L -62.4185,-46.7634 L -62.59,-46.755 z
M 62.4185,-46.7634 L 62.2486,-46.7886 L 62.082,-46.8304 L 61.9203,-46.8882 L 61.7651,-46.9616 L 61.6178,-47.0499
 L 61.4798,-47.1522 L 61.3526,-47.2676 L 61.2372,-47.3948 L 61.1349,-47.5328 L 61.0466,-47.6801 L 60.9732,-47.8353
 L 60.9154,-47.997 L 60.8736,-48.1636 L 60.8484,-48.3335 L 60.84,-48.505 L 60.8484,-48.6765 L 60.8736,-48.8464
 L 60.9154,-49.013 L 60.9732,-49.1747 L 61.0466,-49.3299 L 61.1349,-49.4772 L 61.2372,-49.6152 L 61.3526,-49.7424
 L 61.4798,-49.8578 L 61.6178,-49.9601 L 61.7651,-50.0484 L 61.9203,-50.1218 L 62.082,-50.1796 L 62.2486,-50.2214
 L 62.4185,-50.2466 L 62.59,-50.255 L 62.7615,-50.2466 L 62.9314,-50.2214 L 63.098,-50.1796 L 63.2597,-50.1218
 L 63.4149,-50.0484 L 63.5622,-49.9601 L 63.7002,-49.8578 L 63.8274,-49.7424 L 63.9428,-49.6152 L 64.0451,-49.4772
 L 64.1334,-49.3299 L 64.2068,-49.1747 L 64.2646,-49.013 L 64.3064,-48.8464 L 64.3316,-48.6765 L 64.34,-48.505
 L 64.3316,-48.3335 L 64.3064,-48.1636 L 64.2646,-47.997 L 64.2068,-47.8353 L 64.1334,-47.6801 L 64.0451,-47.5328
 L 63.9428,-47.3948 L 63.8274,-47.2676 L 63.7002,-47.1522 L 63.5622,-47.0499 L 63.4149,-46.9616 L 63.2597,-46.8882
 L 63.098,-46.8304 L 62.9314,-46.7886 L 62.7615,-46.7634 L 62.59,-46.755 z
M -62.7615,50.2466 L -62.9314,50.2214 L -63.098,50.1796 L -63.2597,50.1218 L -63.4149,50.0484 L -63.5622,49.9601
 L -63.7002,49.8578 L -63.8274,49.7424 L -63.9428,49.6152 L -64.0451,49.4772 L -64.1334,49.3299 L -64.2068,49.1747
 L -64.2646,49.013 L -64.3064,48.8464 L -64.3316,48.6765 L -64.34,48.505 L -64.3316,48.3335 L -64.3064,48.1636
 L -64.2646,47.997 L -64.2068,47.8353 L -64.1334,47.6801 L -64.0451,47.5328 L -63.9428,47.3948 L -63.8274,47.2676
 L -63.7002,47.1522 L -63.5622,47.0499 L -63.4149,46.9616 L -63.2597,46.8882 L -63.098,46.8304 L -62.9314,46.7886
 L -62.7615,46.7634 L -62.59,46.755 L -62.4185,46.7634 L -62.2486,46.7886 L -62.082,46.8304 L -61.9203,46.8882
 L -61.7651,46.9616 L -61.6178,47.0499 L -61.4798,47.1522 L -61.3526,47.2676 L -61.2372,47.3948 L -61.1349,47.5328
 L -61.0466,47.6801 L -60.9732,47.8353 L -60.9154,47.997 L -60.8736,48.1636 L -60.8484,48.3335 L -60.84,48.505
 L -60.8484,48.6765 L -60.8736,48.8464 L -60.9154,49.013 L -60.9732,49.1747 L -61.0466,49.3299 L -61.1349,49.4772
 L -61.2372,49.6152 L -61.3526,49.7424 L -61.4798,49.8578 L -61.6178,49.9601 L -61.7651,50.0484 L -61.9203,50.1218
 L -62.082,50.1796 L -62.2486,50.2214 L -62.4185,50.2466 L -62.59,50.255 z
M 62.4185,50.2466 L 62.2486,50.2214 L 62.082,50.1796 L 61.9203,50.1218 L 61.7651,50.0484 L 61.6178,49.9601
 L 61.4798,49.8578 L 61.3526,49.7424 L 61.2372,49.6152 L 61.1349,49.4772 L 61.0466,49.3299 L 60.9732,49.1747
 L 60.9154,49.013 L 60.8736,48.8464 L 60.8484,48.6765 L 60.84,48.505 L 60.8484,48.3335 L 60.8736,48.1636
 L 60.9154,47.997 L 60.9732,47.8353 L 61.0466,47.6801 L 61.1349,47.5328 L 61.2372,47.3948 L 61.3526,47.2676
 L 61.4798,47.1522 L 61.6178,47.0499 L 61.7651,46.9616 L 61.9203,46.8882 L 62.082,46.8304 L 62.2486,46.7886
 L 62.4185,46.7634 L 62.59,46.755 L 62.7615,46.7634 L 62.9314,46.7886 L 63.098,46.8304 L 63.2597,46.8882
 L 63.4149,46.9616 L 63.5622,47.0499 L 63.7002,47.1522 L 63.8274,47.2676 L 63.9428,47.3948 L 64.0451,47.5328
 L 64.1334,47.6801 L 64.2068,47.8353 L 64.2646,47.997 L 64.3064,48.1636 L 64.3316,48.3335 L 64.34,48.505
 L 64.3316,48.6765 L 64.3064,48.8464 L 64.2646,49.013 L 64.2068,49.1747 L 64.1334,49.3299 L 64.0451,49.4772
 L 63.9428,49.6152 L 63.8274,49.7424 L 63.7002,49.8578 L 63.5622,49.9601 L 63.4149,50.0484 L 63.2597,50.1218
 L 63.098,50.1796 L 62.9314,50.2214 L 62.7615,50.2466 L 62.59,50.255 z
" stroke="black" fill="lightgray" stroke-width="0.5"/>
</svg>
