<?xml version="1.0" standalone="no"?>
<!DOCTYPE svg PUBLIC "-//W3C//DTD SVG 1.1//EN" "http://www.w3.org/Graphics/SVG/1.1/DTD/svg11.dtd">
<svg width="22mm" height="39mm" viewBox="-11 -16 22 39" xmlns="http://www.w3.org/2000/svg" version="1.1">
<title>OpenSCAD Model</title>
<path d="
M 0.262334,-12.4248 L 0.432624,-12.4685 L 0.596091,-12.5332 L 0.750158,-12.6179 L 0.892394,-12.7213 L 1.02056,-12.8416
 L 1.13262,-12.9771 L 1.22683,-13.1255 L 1.30169,-13.2846 L 1.35602,-13.4518 L 1.38896,-13.6245 L 1.4,-13.8
 L 1.38896,-13.9755 L 1.35602,-14.1482 L 1.30169,-14.3154 L 1.22683,-14.4745 L 1.13262,-14.6229 L 1.02056,-14.7584
 L 0.892394,-14.8787 L 0.750158,-14.9821 L 0.596091,-15.0668 L 0.432624,-15.1315 L 0.262334,-15.1752 L 0.0879067,-15.1972
 L -0.0879067,-15.1972 L -0.262334,-15.1752 L -0.432624,-15.1315 L -0.596091,-15.0668 L -0.750158,-14.9821 L -0.892394,-14.8787
 L -1.02056,-14.7584 L -1.13262,-14.6229 L -1.22683,-14.4745 L -1.30169,-14.3154 L -1.35602,-14.1482 L -1.38896,-13.9755
 L -1.4,-13.8 L -1.38896,-13.6245 L -1.35602,-13.4518 L -1.30169,-13.2846 L -1.22683,-13.1255 L -1.13262,-12.9771
 L -1.02056,-12.8416 L -0.892394,-12.7213 L -0.750158,-12.6179 L -0.596091,-12.5332 L -0.432624,-12.4685 L -0.262334,-12.4248
 L -0.0879067,-12.4028 L 0.0879067,-12.4028 z
M 0.562144,2.94686 L 0.927051,2.85317 L 1.27734,2.71448 L 1.60748,2.53298 L 1.91227,2.31154 L 2.18691,2.05364
 L 2.42705,1.76336 L 2.62892,1.44526 L 2.78933,1.10437 L 2.90575,0.74607 L 2.97634,0.376 L 3,-0
 L 2.97634,-0.376 L 2.90575,-0.74607 L 2.78933,-1.10437 L 2.62892,-1.44526 L 2.42705,-1.76336 L 2.18691,-2.05364
 L 1.91227,-2.31154 L 1.60748,-2.53298 L 1.27734,-2.71448 L 0.927051,-2.85317 L 0.562144,-2.94686 L 0.188372,-2.99408
 L -0.188372,-2.99408 L -0.562144,-2.94686 L -0.927051,-2.85317 L -1.27734,-2.71448 L -1.60748,-2.53298 L -1.91227,-2.31154
 L -2.18691,-2.05364 L -2.42705,-1.76336 L -2.62892,-1.44526 L -2.78933,-1.10437 L -2.90575,-0.74607 L -2.97634,-0.376
 L -3,-0 L -2.97634,0.376 L -2.90575,0.74607 L -2.78933,1.10437 L -2.62892,1.44526 L -2.42705,1.76336
 L -2.18691,2.05364 L -1.91227,2.31154 L -1.60748,2.53298 L -1.27734,2.71448 L -0.927051,2.85317 L -0.562144,2.94686
 L -0.188372,2.99408 L 0.188372,2.99408 z
M -8.46893,22.0734 L -8.28647,22.0266 L -8.11133,21.9572 L -7.94626,21.8665 L -7.79386,21.7558 L -7.65655,21.6268
 L -7.53647,21.4817 L -7.43554,21.3226 L -7.35534,21.1522 L -7.29713,20.973 L -7.26183,20.788 L -7.25,20.6
 L -7.26183,20.412 L -7.29713,20.227 L -7.35534,20.0478 L -7.43554,19.8774 L -7.53647,19.7183 L -7.65655,19.5732
 L -7.79386,19.4442 L -7.94626,19.3335 L -8.11133,19.2428 L -8.28647,19.1734 L -8.46893,19.1266 L -8.65581,19.103
 L -8.84419,19.103 L -9.03107,19.1266 L -9.21353,19.1734 L -9.38867,19.2428 L -9.55374,19.3335 L -9.70614,19.4442
 L -9.84345,19.5732 L -9.96353,19.7183 L -10.0645,19.8774 L -10.1447,20.0478 L -10.2029,20.227 L -10.2382,20.412
 L -10.25,20.6 L -10.2382,20.788 L -10.2029,20.973 L -10.1447,21.1522 L -10.0645,21.3226 L -9.96353,21.4817
 L -9.84345,21.6268 L -9.70614,21.7558 L -9.55374,21.8665 L -9.38867,21.9572 L -9.21353,22.0266 L -9.03107,22.0734
 L -8.84419,22.097 L -8.65581,22.097 z
M 9.03107,22.0734 L 9.21353,22.0266 L 9.38867,21.9572 L 9.55374,21.8665 L 9.70614,21.7558 L 9.84345,21.6268
 L 9.96353,21.4817 L 10.0645,21.3226 L 10.1447,21.1522 L 10.2029,20.973 L 10.2382,20.788 L 10.25,20.6
 L 10.2382,20.412 L 10.2029,20.227 L 10.1447,20.0478 L 10.0645,19.8774 L 9.96353,19.7183 L 9.84345,19.5732
 L 9.70614,19.4442 L 9.55374,19.3335 L 9.38867,19.2428 L 9.21353,19.1734 L 9.03107,19.1266 L 8.84419,19.103
 L 8.65581,19.103 L 8.46893,19.1266 L 8.28647,19.1734 L 8.11133,19.2428 L 7.94626,19.3335 L 7.79386,19.4442
 L 7.65655,19.5732 L 7.53647,19.7183 L 7.43554,19.8774 L 7.35534,20.0478 L 7.29713,20.227 L 7.26183,20.412
 L 7.25,20.6 L 7.26183,20.788 L 7.29713,20.973 L 7.35534,21.1522 L 7.43554,21.3226 L 7.53647,21.4817
 L 7.65655,21.6268 L 7.79386,21.7558 L 7.94626,21.8665 L 8.11133,21.9572 L 8.28647,22.0266 L 8.46893,22.0734
 L 8.65581,22.097 L 8.84419,22.097 z
" stroke="black" fill="lightgray" stroke-width="0.5"/>
</svg>
